/* XPM */
static char *_5d679cfe9bc4051d2fc1b222102da73dtAiJJDL0sNJaaaw[] = {
/* columns rows colors chars-per-pixel */
"64 64 6 1 ",
"  c #5B4538",
". c #423127",
"X c #352922",
"o c #49372C",
"O c #6A5244",
"+ c #796152",
/* pixels */
"    .X..o  o......XX..ooooo....XX...o O   oo   o..oo O  .X.o  OO",
" O  XX.Xo   ..o..X.o.ooooo..ooXX..o.o    oooo oo...ooO o..o  OO ",
" OO oXX.o O .o.....oo  OOO oooo.Xo..oo  oo.o oo..X..o Oo.o  OO o",
"ooO o.X.  O oo..o.oo  OOOOOO o.oXX.X.o  o..ooo.oXX..ooO oo O  oo",
".oo  ..o O  ooo..o  OOOO++OOOO o.XX...o ..oo.o..X...ooOOo O   o.",
"o.o  ooo O oo.oooO OOO+++OO O O ..X...oo .o...X.Xo...o O OO  oo.",
"...oO o OO  X..o OO  ++OOOO  o  .oXX.ooooooo.X.X.oo..o O O   o..",
".... O  O  oXXo OO  O+++OO Oooo  ..X..o..ooo...X..o.o  OOO Oo...",
"...o OO   oo.XoOO   OO+++O  ..oo o...o..ooo...XX.o.ooo  OOOOo..X",
"...oo OO  o.o. O O   OO++OOo.o.o  o.....ooo.X.Xo.ooooo  OOO .oX.",
"..o.o OO o oooO  oo OOOO++OoXXX.  oo..o..o..XX..ooooo o OO o..XX",
"X.... O  oo..o  oo.o O O+OOO.XXXo  o...o..oXX..oooo.ooo  O o.XXX",
"X...o O oo.Xo   oX..  O+OOO oo..oO .o.Xo.oo..XX..o..oooo OO ..XX",
"X.X.oOO ooXXoO  XXX. OOOOOOO ooo O  o.X.o.oo..XXX.o....oo O o.XX",
"XXXooOO o.XooO  XX. OO   OOOOO   OO ...X.....o.X...X.XX.oo Oo..X",
"XX.o O oo..o  O oX. O   ooOOO O O+OO.o.XX...o.X..oo.XX...o  oo.X",
"XXo.O  o..oo O  o. O O ... OOOOO++O o.XXoo.ooo.ooooo..oo..o  o..",
"X...   .o.o. OO  oOO  o...o O+OO+OO oo.X.oo.oooo.oo..o.o.o.o o.o",
"...o  oo.o..OOOO  O+Ooo..XooO+++OO O o...o..ooo.o   o...ooo   o.",
"..oo  o..o.X OOO O++ o..XX.o+++OOOOO o..X..oooo      o...o o  oo",
"ooo  o..o.X.o OOOO Oo.X.X...++OO OO   .XX..oo       O o.X.ooo  o",
"oo   o....Xo oOOOO+O...XXX.. +O OO    .XX.oo      OO   .XX.ooo  ",
"    oo.o...Xoo OO+O  o.XXXXo O+OO   o .X.oo  O   OO    o.XX.o.. ",
"o  oo.o......o OOOOO  o.XX.oOOOO O  oo...oo O    OO     oXX..o..",
"o  o..ooX..X..o OOO O oo..o OOOO   o .o.o. OO ooOOOO    o.XX.ooo",
"oo o.o.oX.XX.. oO  OOO oo. OOOO O  ooo..oo O o.. OOOO    .X...oo",
"o ooo....XX..ooo  OO OOO  OOOOOOOO  o.Xo oOO..X.o OOOo   o.Xo.oo",
"ooooo...X.X.o.ooo   OOO  O OOOO OO  .X.oo O o.XX  +Oooo  o..oooo",
"oooo..XXX..XX...oo     O OOOOOO OOo ..oo O  oX.. +OO.Xoo  o..ooo",
"oooo.XXX..o.XX.oooo   O OOO OO OO oo.X.o O O.o.o++O XXXoO ....oo",
"o.o.X.X.o.ooo.X...oo     O  OO O   ooX.   O  oo +++ .X.. Oo..XX.",
".oo.oo..oooo.....ooooo       O  O o o.o   OO   OO++Oo..oOOoo..XX",
"o  oo...oo oo.o..o..o.oo  o   O     ..o   OOO O+O+O  oooO .o.X..",
"     o.oooo  o..o.o..oooo  o       o..   OO+OOO+++OO   O oo.....",
"oo    oo.ooo  oo ooo.o..oooo     oooo. o O+OOOOO+++OOOOOoo....o ",
"ooo    o..o  ooo  ooo o.. .oo     oo.oo  +++OOOOO+++OOO .oX..o  ",
" o o o  o.X   o   oo  oo o..oo o   oooo OO+OOOO  OOO+OOo...X.oo ",
"o   ooo .X.     O  o  oo  o.o.ooo o..ooo OOO+O oo OO+O oo..Xo.oo",
"oo   o oXX  o   OOo    o   ooo.ooo o..o O O+OOo...OOO+O oXX..o o",
"      oo.X oo  OO    O     ooo..oooo.o  OOO+O ooX. OOOO ..XXo   ",
"      .oX.oo o OO     OO    o.X..oo.ooo  O++Oo.XXXo OO  o..X  oo",
"o    o..Xooo   O O oo  OO   ...X.oooo.oo OO+ oXXX.o OO ooX..oo .",
"    o..X.o.o  O+ oo..o   OO o..XX.oo.oo   OOo.X..o  OOoo.XX.oo..",
"o  oooXX..oo O+Ooo..X.  OOOOoo.X...o..o  oO o..X..o  O .XX...o.o",
"oo oo.X.o.o  O++.o.X..o  O  o.o.X.....  ooO ...oo.ooO  o.Xo..o o",
"o oo....ooo OO+Oo.XXo.o O   ooooX.X...o oo Oo.o.ooo   o.X.o.o  o",
"oo...oo..o  O+O ..XX.oo      oooo..X.. o.  O oooo   oo.....o o..",
"..XXoo..oo OO+Oo.XX..o    O Oooooo.X..o.o OO  oo   o oo..o.oo...",
"XX.o..Xoo  O++ .XXo.o O  OOO  oo.oXXX...  O      oo...Xoo.o..XX.",
".XX..Xo.  O +O o.X.ooOO OO OO oo..XX...o O o    oo.oXX..oo..XX..",
".o.XXX.o O oOO oo.oo O  O  O oo o..X.o.o  ooo  o.XX..X.XXX.X..o.",
"..oXXo. OOoo. O oo  O o O   oo  oo...ooo ooo  o.XXXX....XXX.oo..",
".oo.X.o O o..oO  OOO ooo O   o o.o.X..o oooooo.X..XXXX..X.ooo.o.",
".oo...ooO .X..  OOO oo.X OO o  oo..X.o.ooooo....o...X....ooooooo",
"oooo.X.o Oo.X.OOO+OOo.X.  O   oo....X..ooo.oo....o....X.o.. ooo ",
"  oo.Xo. Oo.Xo O+++Oo.XXo     oo...XXX..ooo....oooo..XXX..oo    ",
"O  oo.X.o  oo  ++OO .XXo.o   o....o.X..ooooo..ooo..X.X..oo    OO",
"OOO  oo.o O o O+OO o.X..oo  o...Xo..o.oo   O  oo.XXXX.oo   OOOOO",
"O+OO  oo.o OOOOO+ oo...oo  oo.XXXoo.oo  OOO    .o.X..oo  OOO++OO",
"+++OO  oo.  OOOO+O o.oo   oo.o.X.o.oo OOOO  o O oo.X.o  O OOOO++",
"+OO+OOO o..   OOO   o   oo oo...o... OOoOO o.o Oo.o.o        OO+",
"OOOOOO  Oo.oo   OOO   ooo.ooo..oo..oO o. O o.. O oo.o O   oo   O",
"O  O o.OO o.o..o O  oooo...o...o..ooOO.. O  .oOO o.o O   oX.o   ",
" O  o..oOO ..o..oooooo....o........o Oo   O ooO o.ooOO  o.XX.o  "
};
