/* XPM */
static char *_022dc2516384d48b7d084ecb30a345b8oAw9zWNQ2SzVbaw[] = {
/* columns rows colors chars-per-pixel */
"64 64 30 1 ",
"  c #271E11",
". c #2C2213",
"X c #362A15",
"o c #3F3F3F",
"O c #41311A",
"+ c #632805",
"@ c #773007",
"# c #556809",
"$ c #5E720D",
"% c #695433",
"& c #7C623E",
"* c #0C6B50",
"= c #2A4E7A",
"- c #494949",
"; c #911111",
": c #BC1616",
"> c #CE1818",
", c #897E08",
"< c #9B7742",
"1 c #758E11",
"2 c #118E6B",
"3 c #A89B0A",
"4 c #9F844D",
"5 c #B38C51",
"6 c #BC9862",
"7 c #CCA66C",
"8 c #315B8E",
"9 c #3163A3",
"0 c #898989",
"q c gray71",
/* pixels */
"555445544444<<44554<<4544<4554<<<44444545655665545544<4<45444545",
"5544<<4<44<<<4<<<4<<&&<&<<<<4444<<4<<<444445544444<<<<<444<<4455",
"54.  .......XXXXXXXX............XX.X..XXXXXXXX..  ..XX......    ",
"55 ....XXXXXXXXXXXXXXXXXXXXXXXXXXXXXXXXXXXXXXXXX.XXXX..XX.. .   ",
"55.XX.XXXXXXXXXXXXOXXXXXXXXXXXXOOXXXXXXXXXXXXXXX899999988=XX... ",
"45..XXXXXXXXXXXXXOOXOXXXOOOXXXOOXXOXXXXXXXXXXXXO899998888=X.....",
"54XXXXXXXXXOOXOOOOOOOOOOOOOOOXXOOOXX,333333,XOXO=8999988==XXXXX.",
"54XXXXXXOOXXOOOOOOOOOOOOOOOOOOOOOXXX,333333,XXOO==88888===XX.XXX",
"55XXXOOOXXOOOO;:::::;@XOOOOOOOOOOOXX$11111$$OXOO899999988=X....X",
"55XXOOOXXOOOOO;::::;;@XOOOOOOOOO$$#X$1111$$$OOOX899998888=.X..33",
"54.XXXOOOOOOOX;::::;;@OXOOOOOOOO$1$#,3333,,,OOXX=8999988==22**33",
"54..XXXOOOOOXX;:::::;@XXOOOOOOO$11$$,33333,,XOXX==88888===****33",
"54:::;OO++++++;::::;;@XXXOOOOOO$111$0qqqqq00:::@899999988=222*33",
"44:::;XO++@@@+;:::::;@XXXXOOOO$1111$0qqqq000::;@899999998=222*33",
"44::;;OX+@@@@+;::::;;@998=OOOX$1111$,3333,,,;;;@899999988=222*qq",
"<<;;;;OX+@@+++;::::;;@988=OOX$11111$,33333,,:;;@899999988=****qq",
"77:::;O++@@@++;::::;;@998=XOX$11111$,333333,::;@899999998=22**,,",
"54:::;O++@@@++;::::;;@999=XX$11111$#,333333,:::@899999998=****33",
"54::;;X+@@@@+.;::::;;@998=X.$1111$$.,3333,,,:::@899999998=222*33",
"54;;;;X+@@@++.;:::::;@988=X$11111$#.,33333,,::;@899999988=222*33",
"55:::;X+@@@@+.;:::::;@998=.$11111$.X,333333,;;;@899999988=222*33",
"54:::;X+@@@@+X;:::::;@998=$$1111$#XX,333333,:;;@899999888=****,,",
"54:::;X+@@@@+X;::::;;@999=$11111$XOX,3333,,,::;@=8999888==22**33",
"54:::;++@@+++.;:::::;@999=$1111$#OOO,33333,,:::@==88888===****33",
"55::;;++@@@++.;:::::;@998=$11$1$XOOO,333333,:::@899999988=222*33",
"54;;;;+@@@@+.X;::::;;@988=$11$$#XOOX,333333,:::@899999998=222*33",
"55:::;+@@@@+.X;::;:;;@998=$$1$$XOOXO$1111$$$::;@899999888=222*33",
"54:::;+@@+++X.;::;;;;@898=#$$$#XXOXX$$1111$$;:;@=8999998==****,,",
"54::;;++@@++XX;;;;;;@@888=#$$$XXXXXX,,333,,,;;;@==88888===22**,,",
"44;;;;++++++%&@@@@@@@@====%#$#%&&&&&,,,333,,@@@@==========****,,",
"<456655666776677777777667777666656665556556677777766665566565566",
"4554455444566666666665566665655554444555554455566555544555544555",
"4544<<<<4<<4<<44<<<<&&<<&<<<44<<<<4444444555444444<44544444<4445",
"5455444444444<<44444<<<<<4444444<<<<44<<<4444444<<44<<<<&<<<<454",
"55  .XX...  ..XXX.......XX.....XX.....XXX...XX.. ..XX.  ...     ",
"55   ..X...   .XXXX.X....XXXX....X..XXX..X...XXX..XXXXX.X. ..   ",
"55 ...XOOXX..XXXXXXX..$1111111$# ....;@XXX.XOXXOXX.XXXOOXXXX....",
"54..XOOOXOOOXXXOXXXOXX$111111$$#.  ;;::@XXXXXOOOOOXXOOOXXXX.....",
"54;:::::;@OXXXOOOXXOOO#$1111$$## ;;::::;.OOOOOOOOXOOOOOOOXXXXX..",
"45;::::;;@OOOXXOOOOXOO##$$$$####;::>:::;.XOOOOOXXXXOOOOOXXX.XXXX",
"44;::::;;@XOOO8999998=$11111$$$#;:>>>:::;XOXOO$11111$#OXOOX.X...",
"44;::::;;@XOOX8999998=$1111$$$$#;:>>>:::;.XOOO$11111$#XXXOOX....",
"540qqqq000XXOX8999999=$11111$$$#;:>>>:>:;.XOOO$1111$$#*222222=..",
"450qqqq000XXXX8999998=$111111$$#;::>>>>::;XXOO$1111$$#*22222*=.#",
"55;:::::;@222*=88888==$1111$$$$#@;:>>>>>:;XXOO$1111$$#*222***=#$",
"54;::::;;@2***=8888===$11111$$$#.;:>>>>>:;.XXO$11111$#*2222**=$$",
"44;::::;;@%%%%8999988=$11111$$$#.@::>>>>::;XOO$11111$#0qqqq000$$",
"<<;::::;;@%%%%8999998=$11111$$$#X@;:>>>>::;XOX$111$1$#0qqqq000$1",
"77;::::;;@****8999999=$111$$$$$#..;::>>>>:;.XX$111$1$#*2222**=11",
"55;::::;;@22**8999998=$1111$$$$#.X@::>>>>::;X.$111$1$#*222***=11",
"54;:::::;@222*8999999=$11111$$$#X.@;:>>>>::;..$111$1$#0qqqq00011",
"54;:::::;@222*8999999=$11111$$$#X.X;:>>>>>::;.$11111$#0qqqq00011",
"54;::::;;@222*8999998=o-----ooooXXX;::>>>>::@ $11111$#*2222**=$1",
"5<;::::;;@22**8999998=o-----ooooOXX;::>>>>>:@ $111$1$#*2222**=$1",
"4<;::::;;@****8999999=o-----ooooXOX@::>>>>>:;@$111$1$#*22222*=$1",
"4<;::::;;@22**8999998=o-----ooooXOO@::>:>>>::@$111$$$#*22222*=$$",
"54;::::;;@222*=88888==$11111$$$#XOOO@:::>>>::;$111$$$#*222*2*=#$",
"55;::::;;@222*=8888===$11111$$$#XXOO@::::>>::;$111$$$#*222*2*=#$",
"55;::;:;;@%%%%8999988=$111$$$$$#XXOX@;:::::;;@$1111$$#*222***=.$",
"55;;:;;;;@%%%%8999998=#$111$$$$#XOXXX;:::;;@@X$11$1$$#*22****=.#",
"54;;;;;;@@222*899998==##$$$$$$##XXXXX@;;;@@X..$11$$$$#*******=.#",
"54@@@@@@@@2***========##########%&&&&@@@@%%&&&########========%#",
"4546656776766777777766776766666655666666556677667777667766665554",
"5455665566555676655666656556555445565555666665566765556666555544"
};
