/* XPM */
static char *_4971974a716407cac7b531fb475c047Wj2m6MgMhD8S6fHb[] = {
/* columns rows colors chars-per-pixel */
"64 64 8 1 ",
"  c #444444",
". c #353535",
"X c #2F2F2F",
"o c #535151",
"O c #686868",
"+ c #777777",
"@ c gray52",
"# c gray57",
/* pixels */
"          ..  ......XXXXXX....    ..XX.X..  ..   ...    ... ..XX",
"                   ..  .....          ..                      .X",
"  ooooO++@@++@++@@++@@++O++OOooOOO++OOooOOOOOo+@@@##@@@#@##@++ .",
"  oooO++@@#@@++@@++@@++++OOoooOO+++@+OOoooOOoO++@+@###@@##@+++ .",
". oOO+@@#@@#@@@@@@@+++OO++OOoOO+++@@++++OOoOoOOO+@###@##@@@@@+ .",
". OO+++@@#####@@+@@@+++OOOooOO+@@+++@@+++OOoooO+++@@@##@@@@+@@  ",
"X O+@@#######@++@@++++OOooOO++++@@+@+++@@++OooOOOO+@+@@#@++@@@  ",
"X.++@@@##@##@++++++++OOooO++@++@@#@##+@@@@++OooOO+++@+@@@@++@+  ",
"..+@+##@##@@@@+@@+O+OooO+++@+@@@####@@#@+@++OOoooOO++O++@@@@++ .",
". +@##@####@@+@@+++OooO+++@+###@@@####@@+++O+OOoooooO+++++@+@+ .",
"  ++@@#@#@@@@@++++OOoO++@@##@###@###+@+++O++OOooO+OOooOOO++@+O.X",
"  @++@@+@@@++@@++OOoO+@@+@@##@#@#@#@@+++O++OooOO+@+OOooO+O+++O.X",
". @@@++++@@@++O+OOooO++@@+#@@@@@@@@@++OO+OooOOO++@@+OOOooOO+OO X",
". +@+++@@+@+OO+O+Oo OO+++@@@@@+@@@++++OOOooOO+++@@+OO+OOoo+OOo .",
"  +++@@@@@+OO+++Oo ooOOO++@@++@@+@@++OOooOO+++@@++@++OOOOoOOoO  ",
"  ++@@+@++O++OOOo  OooO+O++++O+@@+OOOOooOO@++@@+@@@@+++OOoOooO  ",
"  O+++@+++++OOOoooOOOooOO+OOO++@+++OOoOO+++@##@#@@++@@++OOooOO  ",
". O+O+++OOO++OooOOO+OOoOOO+OOO@++OOOOoO++@@@@##@@#+@@++OOOooO+ .",
". oO+OO++OOOOoOO++@@@+OoOOO+O++OOOOOoO@+@+@@@@###@@@+OO+OOoO+O .",
". ooOOOOOOoooOO++@##+++OooOO++++OOooO++@@@@#@#@#@@@+++OOOOo++O  ",
"X OOoo  oooO+O+@@##@@+OOOOooOO+OOooOO@@@#@@@###@@@+OO++OOoO+@+ .",
"X.+OO  ooOOOO+@@@@@@+@++OOOooOOoooOO++@#@#@@@#@+@+OO+OOOOoO+@+ .",
"X.@++Oo ooO++@@#@#@@@@@@+O++OooooOO++@@@@@##@@@@+++++++Ooo+++@ .",
"X.@@+OOo OOO+@###@@#@@@+++OOOOooOOOO++@##@@##@++O++OO+OOoO+@+@..",
"..@+@+OooO++@+@@###@@@++OO+OOOoOO++@@###@#@@@@@+@OOO+OOoO+@+@@ .",
"..++@@+Oo+O+@@@###@@#+@++OOOOOoO+O@####@@@@@+@@@++OOOOO oO+@@+ .",
"X.+@@++oO++@+@#@@@##@#+@+++OOoO++@###@@##@@@@++++OOOOO  O++@++ X",
"X @@+@Oo++@@+###@#@##@@@@+O+Oo+@+@@@##@@@@++@@+OOOOOo  o++@@@+ X",
". +@O+Oo+O@+@@####@@@@+++++OOoO+@@@@@@#@++@@++OOOOo  ooO+O+@@@.X",
". +O+OOoO++@@#@##@@+@++@@+OOooOO+@++@@@@@++@@+++OoOo  ooO+++@@..",
"  ++OOoOOO+@@@@#@++@++@++O+OoooO+++@@+@++++O++OOooOO+OOOoOO+@+.X",
"  O++OoOO+@++@@@@@++@@+@++OooOoOO+O+@@++++O+O++OoOO+++OOOoOO++.X",
". +OOoOO+O++@+@@+@@@+@@++OoOO+Oo+O+@+OO+O++OOOOoOO++@@++OooO+O .",
". OOooO+OOO++@++@@@+++++OoOO++OoOOO+O+OO+OOOOOoOO+@@#++OOOooO+ .",
"X oooOO++OOO+++@@+++O+OOoO+@@++OoOOO++++OOOOooO+++##@@+@+OooO+  ",
"X.OoOoOOO+OOO+OO++O++OOoo+++@@++oOOOOO+++OOooOOO+##@@##+++OoOO  ",
"..+OOOooOOO++OO+++OOOOOo++@@#@@@OooOO++OOOOoOO+++@@###@@@+OOoO .",
"X.+++OOoooOOOO++OOOOOOoO+@+@@#@++OooOOO+OOoOO+++@@@@#@@@+++OoO .",
"X @@++++OOooOOOOOOOOooO++@@#@##@@++O oOOo oO+O+@##@@@#++@@++Oo.X",
"X @+@@+++OOoooOOOoooOO++@+@####@+@++o  o  o+++#####@###++@@+OoXX",
". ##@++@@++Oo ooooOO++@@+####@##@@@@+Oo  oO++@@##@@##@@#@++OOo .",
"  @###@+@@++Oo   OO+O++@@@##@#@#@@++@+Ooo O+@+@@##@@@#@++++OoO .",
"  @@@##@++@@+Oo O+++@@++##@@##@@@@@+++OOo O+@@++++@+@+++O+OOoO  ",
"  #@##@#@++@@+OoOO+@+@@#@##@@##@+@@+@++OooOO++++@@@@+@+++OOOoO  ",
"  @###@@@@@+++OOoOOOO+@@#@@+#@@@@+@@@+++OoOO++@@@+++O+OO+OOoOO .",
"  @@@##@@++@+OOOooOO++++@++@@@@+@+@@++O+OOoOO++@+@+++OO+OOOoOo .",
". +@#@@@++@+OO+OOoooOO+O++@@+@@+++@+OOO+OooO++@++++OO++OOOOooO X",
". ++@@++@@++O+OOoOOoooO+++O++@++O++O+O+Oo ooOO+O++OO++OOOOooOO.X",
"..@@+++@@@@+++OoOO++OOooO++O@++O++OOOOO  ooOOOOO++++OOOOOOooOO.X",
"X.+@@+@@+++@+OOo+++O+OOoooOO++OOO+OOOo  oooooOOOOO+++OOOOooO+O.X",
"X @++@@++O+OOOoO@+@@+@+OOooOO+OO+OOOo oOO+OOOooOO++OOOOOooO++O..",
". ++@+++++OOooO++@@#@@@++OooOOOOOOOooOOO+O++OOooOOOOOOooOO++O+ .",
". +O++O+OOooO+++@+@@###@++OooOOO  oOO+++@+++@@+OooOOooOO+@@+++ .",
"  O++OOOoooO+@+@##@###@+++Oo oo  oOO++@@++@##@@+OOoooOO+@@##@+. ",
". OOOoooO++@++#@@###@@@@+@OOo  oO+O+O##@@##@@++++OOoO+@@##@##@  ",
". OooooO++@@@@@####@#+@@@+OOo oOOO++@@######@@++OOOoOO+@@##@@+  ",
"  oOOoOO+@++@####@@++@+@+++OooOOO+@@##@@##@##+@@++OoO+@##@@+++ .",
". OOoOO+@++@#@#@@#++@+++++OOooO+O++##@@#@##@@@@++Ooo+@+@@@@@++ .",
"  OOoO+@@@@+@#@@#@@@@@++OOOoOoO+++@@@#@@@@@@+@++OOoO++@@@@++@@  ",
"  OoO++@++@@@+@@@+@@++O++OOoOOoO+++@+@@+@@+O+++++Oo++O++@++@@+  ",
"  ooOOO++@+@@+++@@+OO++OOOooOOoOO+@+++@@++++OO+OOoOOO++@@@@+++  ",
".  ooOOO++@@+++@++++OOOOOooOOOOoOO+OO++@@++OOOOOooOOOO+++@+@++  ",
"X...XX....       ..  .   .                       ...            ",
"XX...XXXXX....  ....XX...     ...       ....  .X..XX..          "
};
