/* XPM */
static char *_544c44b1f9144f687dc69782847e609Bwi8quLDI64BaKWC[] = {
/* columns rows colors chars-per-pixel */
"64 64 10 1 ",
"  c #664D28",
". c #6B5332",
"X c #785836",
"o c #805E36",
"O c #5A4424",
"+ c #553A1F",
"@ c #353535",
"# c #3F3F3F",
"$ c #535353",
"% c #686868",
/* pixels */
" .XXoX.XXoXXOOXooX..Xo.X+OoXoX. ..X.Xo OoX..XoXXX.OOoXX.X..X.XOO",
" .XXoX.XXoXXOO.ooX.XXoX.OOoXoX. ..X..o OoX..XoXXX.OOoXX.. .X..OO",
" .XooX..XXoXOO.XoXoXXXo.O o.Xo  .X.X.X  oXX.XoXX.X OoXo. .XX.  O",
"O.XooX.XXXo.O XXoooX.XoXO o.Xo ..X.X.XO oX.XXoXX.X OoXoX Xo..  O",
"O XoX.XX.XX.O oXooXX..XX+OoX.X..XX.XXoO oX.XXX.XXX  oXXX.Xo..   ",
"O XoX.XX.XX.  ooXo.X. XX+OoX....X...XoO o.XXoX.XXXO ooXX.oX..  O",
"OOXoXXX..XXXO ooXX.X .X.+ XX.... .X.Xo OX..XoX.X.XO XoX.Xo..X. O",
"O ooXXX..oXXO XoXoX. XX.+ XX.. . .XXXo+O.X..XX...o OXXX.Xo.XX. O",
"O oXXX. .oXo+OXoooX..X..O .X. ...X.XXo+O.X..X...Xo +oXXXooXXX. O",
"O oX.X. XoXo+O.XooXX.X..O  .. .. ..X.XO+XX.XX.X.Xo +oXoXooX.X.  ",
"O XX..  XXoo+O.XoXX.XX..   . ..  ... .O+X.XXX.XXoXO+XooXoXX... O",
"OOX... .XXoo++X.oXX.XX.X O   ..   .. XO+X.XXXX.XXXO+XXooXXXX.. O",
"@#$%%%%%%%%$#@$%%%%%%%%$#@$%%%%%%%%%%$#@$%%%%%%%%$#@$%%%%%%%%$#@",
"@@#$$%%%%%$$#@#$$%%%%%$$#@#$$%%%%%%%$$#@#$$%%%%%$$#@#$$%%%%%$$#@",
"@@###$$$$$##@@###$$$$$##@@###$$$$$$$##@@###$$$$$##@@###$$$$$##@@",
"@@@#######@@@@@#######@@@@@#########@@@@@#######@@@@@#######@@@@",
"O   ... OO .O ..  OO O  O+.   OO O   .OO.   OO O  +O  OO  OO   O",
"O . .X.. O..O X...  ..  O+..... ......O .... ... .+O. OO   .  .O",
"O ..XX.X  o.O X.X. .X. .O+.X..o..X..X.O .X..X..X..+ X.O .. X. .O",
"O.X.XXoX .oXO X.X...X... +XX.Xoo.X..XXO XX. ..XX. +OX.  ...XX . ",
" .oXX.oX..XX+ XX...XX.X. Oo.XXoXoXX.XX+ oX  X.oXX O X. . .X.X.. ",
" .oX..oXX.X.+OXX. .XXXX. Oo.XXXXoXX..X+Oo. .XXo.X O oX.. ...X.  ",
" .oo.XXXX.X.+OoX. XXX.XX OoX.XXoXX.X.o+Oo.X.XXo.. OOoX...... . O",
"  XoXX.XX.X.O oX..XXX.X. OoX..XoXX.XXoO+oXX..XoX. O+oX.....X . O",
"  XoXX.oXXX O oXX.XXX...  oX.XXX.X.XXoO+oX.X.oXX .O+oX.X. .X.  O",
"O XX.XXoXX.   oXXXX.X..   oX.XXX.XX.XoO+oX.X.oX. .O+oX.X.  .X  O",
"O.oX.XooXX..  oX.XX.XX. . o.XXX..XX..oO+oX..XX.. .O+XXXX. ... .O",
"O.oX.XoXXX..  oX..XXXX. . o.X.X..X...oO+oX..XX.. . +XXXX. X..X. ",
"O oXX.XXXo.X  oXX.XXX.X.. oXX X. .X.Xo OoX..X..  . +oX.X .X.XX  ",
"  XXX X.XoXX  ooX.XXX.XX. oXX .. .XX.o  oXX.X .  . Oo.XX..XXXX  ",
" .Xo. ..XXoX OooXXX.XX.X OXX.  . ..X.o OXXXX. .  X Oo.X.X.XXXo  ",
" .Xo. ..X.oX OoXoXX..X.X O.X.. . ..XXoOOX.XX .. .XOOoXX.X.XXXo O",
" .XX... ..X. +oXoX.. ..XOO.X.. .....XoO+X..X .  .XOOoX..XX.XoX.O",
"O.XX.X.. .X.O+oXXX.X. ..OOX. .  .. .Xo +X.XX.. .X. OoX.XXX.XoX.O",
"O.XXXX . .XX+OoXX.XX. ..OOX. .. .X. .o +.XoX.. ... +oXXXXX..XX.O",
"O X.oX ..XXX+OoXX.oXX ..OOX..X. .X. .oOO.XoX. .. . +o.X.X.X.XX. ",
"  X.Xo. .X.XOOoXoXoXX...O+XX.XX XX..Xo+O.ooX. ..   Oo.Xo..X.X.. ",
"  XXXo. ...X OoXooXXX.X.O+XX.XX .X..Xo+OXooXX .    OoXXo..X... O",
"  .X.XX....X OoXXoX.X.XXO+oX..X ..X.Xo+OXoX.X.. .   oXoo.XXX.. O",
"O .X.XX. ..X Oo.XoX.XXX.+OoX..X ..X..o+OooX.X....   oXooXXXX.o O",
"O ..oXX. .X. Oo.XX..XX. OOoXX.X  ....oOOXoX...X.X.  XXoXoXX.Xo O",
"O..XoX.. XX.  oX.X..XX. O oXX.X. ...XoO XoXX..X.X.  .XXXoXX.XXOO",
"O..Xoo. .X.XO oX... X.  O oX.XoX .X.XoO .ooX.XXX.  O.X.oXX.XoXO ",
"O..XXo.....XO oX.. ...   OXo.XoX. XX.o  .XoX.XX..  O.X.XXXXXooO ",
" .X.Xo.X..XXOOoXX. . . . +XoXoXX..XX.o ..XoXX.o. .O+ ..XXX.XXo  ",
"  X.XX.X..X. OoXXX..  . O+XoooXX.XXoXo .XXooX.o. .O+ ...XX.XXo.O",
" .XXXXXX.XX. OoX.X.   ..O+.XoooXXXXooXO XXooXooX..O+  . X.XX.X.O",
" .XooXooooXX OXX... . ..++.XoooXXXooXXO XooooooX.XO+   ...X... O",
"@#$%%%%%%%%$#@$%%%%%%%%$#@$%%%%%%%%%%$#@$%%%%%%%%$#@$%%%%%%%%$#@",
"@@#$$%%%%%$$#@#$$%%%%%$$#@#$$%%%%%%%$$#@#$$%%%%%$$#@#$$%%%%%$$#@",
"@@###$$$$$##@@###$$$$$##@@###$$$$$$$##@@###$$$$$##@@###$$$$$##@@",
"@@@#######@@@@@#######@@@@@#########@@@@@#######@@@@@#######@@@@",
"OO .  OO  ..++   .  OO  +O.  OOO  ..   O..OO ..   ++OO  OO  ..  ",
"OO ... O  . ++...X..    +OX...X...X..   X. O.oXX .++ O. O X... O",
"O . .X.  .  +O..XX.X. ..OOXX..XX.XX.    XX. .oXo.XO+  X. .X.o. O",
"O ..XX.  . .+OX.XoXX .X.O oX..XX.oXX .  XX. XXooXXO+. X..XX.oX.O",
"O..XXX. .X .OOXXoXX. .XoO oX.XXoXoX. .  oX..XXoXXoOO. . .X.Xoo.O",
"O.XoXXX..X..+O.Xo.X. XXo OoXXoXoX.X. . OoX.X.XoXXo O. . XX.ooo. ",
" .XXoXX.XX.X+ .oX.XX.X.X +oX.oooX.. .X OoX.X.XX.Xo OX.  .XXoXo. ",
" .XXoo..XXXoO XoXXXX.X.X +oX.XooX.  .X OoX....XX.o OX.  ..XoXX. ",
"  Xooo...oXoO .oXoXX.X..O+oXX.oX.X. X.O oX .X.XX.o  .X .X.XXoX O",
"O.XoXo...ooX O.ooo.XX.X.O+XXX.XX... X.O o. .X.X.Xo  .X. X.XXoX O",
"O.XoXX.X.oo.OO.XooX.X...++oXXX.X ...XXO X.  XX..Xo  XX. XX.XXXOO",
"O oXoX.XooX.OOXXoXX.X...++oXX... ..XXXOOX.. .XX.Xo OXXX.XX.XXXOO"
};
